<svg width="60" height="60" viewBox="0 0 60 60" fill="none" xmlns="http://www.w3.org/2000/svg">
<path d="M5 1H55C57.2091 1 59 2.79086 59 5V55C59 57.2091 57.2091 59 55 59H5C2.79086 59 1 57.2091 1 55V5C1 2.79086 2.79086 1 5 1Z" fill="white" fill-opacity="0.95" stroke="url(#paint0_linear_674_608)" stroke-width="2"/>
<g clip-path="url(#clip0_674_608)">
<path fill-rule="evenodd" clip-rule="evenodd" d="M8.40039 30.7461V27.4748C8.46854 27.4407 8.46854 27.3726 8.46854 27.3044C9.49082 22.8405 12.285 20.1485 16.7149 19.0921C17.0897 18.9899 17.4986 19.024 17.8735 18.8877H20.0543C20.0884 18.9558 20.1906 18.9218 20.2588 18.9218C22.4396 19.1603 24.416 19.944 26.1539 21.3071C27.6532 22.4316 28.8118 23.8628 29.8681 25.3962C30.0044 25.6006 30.0726 25.6006 30.2089 25.3962C30.8223 24.5102 31.4697 23.6583 32.2194 22.8746C34.0254 20.9322 36.2062 19.5692 38.8642 19.0921C39.239 18.9899 39.682 19.024 40.0568 18.8877H42.1695C42.2036 18.9558 42.2717 18.9218 42.3399 18.9218C42.9873 18.9899 43.6007 19.1262 44.2141 19.2966C48.7802 20.6256 52.0174 24.8169 51.7448 29.5534C51.5403 33.5403 49.5299 36.4027 46.0201 38.2087C44.2822 39.1628 42.374 39.4013 40.3976 39.3673C37.8078 39.3332 35.5588 38.4472 33.6165 36.7434C32.2534 35.5508 31.1971 34.1196 30.2089 32.6202C30.0726 32.4158 30.0044 32.4499 29.8681 32.6543C29.2548 33.5744 28.6073 34.4944 27.8577 35.3804C26.5287 36.8797 24.9953 38.1064 23.0871 38.7539C20.7358 39.5717 18.3505 39.6058 15.9652 38.9583C12.5236 37.9701 10.1723 35.7893 8.87745 32.4499C8.673 31.9046 8.57077 31.2913 8.40039 30.7461ZM19.2365 35.7552C21.1788 35.8234 22.8485 35.1759 24.2797 33.847C25.745 32.4839 26.8013 30.7801 27.8577 29.1104C27.8917 29.0082 27.8917 28.9401 27.8236 28.8378C26.9376 27.4407 26.0176 26.0436 24.7908 24.885C22.4396 22.636 19.6795 21.8864 16.5786 22.8746C14.0229 23.7265 12.3873 25.5325 12.0124 28.2585C11.6376 30.8142 12.6258 32.8588 14.6703 34.3922C16.0334 35.3804 17.5668 35.7893 19.2365 35.7552ZM40.8405 35.7552C41.5902 35.7552 42.3399 35.7211 43.0555 35.5167C45.7475 34.6989 47.5194 33.0292 48.0305 30.2349C48.5417 27.4748 47.4853 25.2599 45.1682 23.6924C42.6125 21.9204 38.8982 22.0908 36.3085 24.0331C34.5706 25.328 33.412 27.0659 32.2534 28.8719C32.1853 28.9741 32.2194 29.0423 32.2534 29.1445C33.1735 30.6098 34.0935 32.075 35.2862 33.3358C36.7855 34.9374 38.5915 35.8574 40.8405 35.7552Z" fill="url(#paint1_linear_674_608)"/>
<path fill-rule="evenodd" clip-rule="evenodd" d="M19.2028 28.0197C20.2932 28.0197 21.4177 28.0538 22.5081 28.0197C22.7807 28.0197 22.8148 28.0878 22.8148 28.3604C22.7807 28.6671 22.7807 28.9738 22.8148 29.2805C22.8489 29.5531 22.7807 29.6213 22.474 29.6213H18.1123C17.3627 29.6213 16.613 29.5872 15.8633 29.6213C15.6248 29.6213 15.5566 29.5531 15.5566 29.2805C15.5907 28.9738 15.5907 28.6671 15.5566 28.3264C15.5566 28.0878 15.6248 28.0197 15.8633 28.0197C16.9537 28.0538 18.0782 28.0197 19.2028 28.0197ZM40.6705 25.8388C40.9431 25.8388 41.2157 25.8729 41.4542 25.8388C41.6246 25.8388 41.6928 25.907 41.6928 26.0774C41.6587 26.5544 41.6928 27.0315 41.6587 27.5086C41.6587 27.7471 41.7269 27.8152 41.9654 27.8152C42.4084 27.7812 42.8854 27.8152 43.3625 27.7812C43.5669 27.7812 43.6351 27.8152 43.6351 28.0538V29.6213C43.6351 29.7916 43.5669 29.8598 43.3966 29.8598C42.9195 29.8257 42.4424 29.8598 41.9313 29.8257C41.7269 29.8257 41.6587 29.8939 41.6587 30.0983C41.6928 30.5754 41.6587 31.0524 41.6928 31.5295C41.6928 31.734 41.6246 31.8362 41.4202 31.8362C40.909 31.8021 40.3979 31.8021 39.8868 31.8362C39.6823 31.8362 39.6142 31.768 39.6142 31.5636C39.6482 31.0524 39.6142 30.5754 39.6482 30.0642C39.6482 29.8939 39.5801 29.8257 39.4097 29.8257C38.9326 29.8598 38.4556 29.8257 37.9785 29.8598C37.7059 29.8598 37.6718 29.7576 37.6718 29.5531C37.6718 29.076 37.7059 28.599 37.6718 28.1219C37.6378 27.8493 37.7741 27.7812 38.0126 27.7812C38.4896 27.8152 38.9326 27.7812 39.4097 27.8152C39.5801 27.8152 39.6482 27.7471 39.6482 27.5767C39.6142 27.0996 39.6482 26.5885 39.6142 26.1114C39.6142 25.907 39.6823 25.8388 39.8868 25.8388C40.1594 25.8729 40.3979 25.8388 40.6705 25.8388ZM50.8428 16.4261C50.7975 16.4939 50.7815 16.5164 50.7668 16.5392C50.6844 16.6629 50.7481 16.913 50.5406 16.9093C50.3565 16.9052 50.4032 16.6762 50.3381 16.5511C50.3211 16.5177 50.3007 16.4871 50.2438 16.3941C50.2438 16.5658 50.2465 16.6629 50.2438 16.7614C50.241 16.8278 50.2557 16.9117 50.1504 16.9171C50.0441 16.9226 50.0505 16.8374 50.0492 16.7706C50.0468 16.5389 50.0468 16.3089 50.0482 16.0785C50.0482 16.0001 50.0359 15.9095 50.1586 15.9068C50.2506 15.9054 50.3303 15.9017 50.3688 16.0213C50.4179 16.1678 50.4353 16.3314 50.5484 16.4724C50.6564 16.3354 50.6748 16.177 50.716 16.0318C50.7508 15.9136 50.8241 15.9057 50.9198 15.9057C51.0411 15.9068 51.0357 15.992 51.037 16.072C51.0384 16.3038 51.0384 16.5338 51.0357 16.7655C51.0343 16.8306 51.0435 16.9171 50.9399 16.9185C50.836 16.9185 50.8438 16.836 50.8428 16.7679C50.8401 16.6694 50.8428 16.5723 50.8428 16.4261ZM49.5779 15.904C49.6076 15.904 49.6393 15.8989 49.6672 15.904C49.7779 15.9255 49.9493 15.8403 49.9855 15.9722C50.0345 16.1572 49.8403 16.0642 49.7578 16.1037C49.6754 16.1436 49.6914 16.2169 49.6897 16.2836C49.6859 16.4431 49.6873 16.6029 49.6873 16.7628C49.6873 16.8507 49.6703 16.9239 49.5568 16.9195C49.4529 16.9161 49.4569 16.8398 49.4569 16.7706C49.4538 16.6211 49.4534 16.4716 49.4556 16.3222C49.4597 16.1944 49.461 16.0744 49.2774 16.0918C49.2133 16.0973 49.1574 16.0785 49.1574 15.9974C49.1574 15.8856 49.244 15.9081 49.308 15.9054C49.3983 15.9013 49.4876 15.904 49.5783 15.904H49.5779Z" fill="url(#paint2_linear_674_608)"/>
</g>
<defs>
<linearGradient id="paint0_linear_674_608" x1="0" y1="30" x2="60" y2="30" gradientUnits="userSpaceOnUse">
<stop stop-color="#A54C4E"/>
<stop offset="0.75" stop-color="#00567C"/>
</linearGradient>
<linearGradient id="paint1_linear_674_608" x1="8.40039" y1="29.1485" x2="51.7608" y2="29.1485" gradientUnits="userSpaceOnUse">
<stop stop-color="#A54C4E"/>
<stop offset="0.615385" stop-color="#00567C"/>
<stop offset="1" stop-color="#0072A5"/>
</linearGradient>
<linearGradient id="paint2_linear_674_608" x1="15.5566" y1="23.8663" x2="51.0379" y2="23.8663" gradientUnits="userSpaceOnUse">
<stop stop-color="#A54C4E"/>
<stop offset="0.649038" stop-color="#00567C"/>
<stop offset="1" stop-color="#0072A5"/>
</linearGradient>
<clipPath id="clip0_674_608">
<rect width="43.617" height="43.617" fill="white" transform="translate(8.29785 8.08496)"/>
</clipPath>
</defs>
</svg>
