<svg width="207" height="43" viewBox="0 0 207 43" fill="none" xmlns="http://www.w3.org/2000/svg">
<path d="M30.4957 20.16C32.8157 20.92 34.6557 22.2 36.0157 24C37.3757 25.76 38.0557 27.96 38.0557 30.6C38.0557 34.24 36.6557 37.06 33.8557 39.06C31.0557 41.02 26.9757 42 21.6157 42H0.735703V-2.86102e-06H20.4157C25.3757 -2.86102e-06 29.1957 0.979998 31.8757 2.94C34.5557 4.86 35.8957 7.52 35.8957 10.92C35.8957 13 35.4157 14.84 34.4557 16.44C33.4957 18.04 32.1757 19.28 30.4957 20.16ZM8.5357 6.12V17.7H19.5757C22.2957 17.7 24.3757 17.22 25.8157 16.26C27.2957 15.26 28.0357 13.82 28.0357 11.94C28.0357 10.02 27.2957 8.58 25.8157 7.62C24.3757 6.62 22.2957 6.12 19.5757 6.12H8.5357ZM21.1357 35.88C27.1757 35.88 30.1957 33.86 30.1957 29.82C30.1957 25.78 27.1757 23.76 21.1357 23.76H8.5357V35.88H21.1357ZM52.8002 14.64C54.9602 11.28 58.7602 9.6 64.2002 9.6V16.74C63.5602 16.62 62.9802 16.56 62.4602 16.56C59.5402 16.56 57.2602 17.42 55.6202 19.14C53.9802 20.82 53.1602 23.26 53.1602 26.46V42H45.6602V9.96H52.8002V14.64ZM85.5096 36.06C88.9896 36.06 91.8896 34.9 94.2096 32.58L98.1696 37.2C96.7696 38.92 94.9696 40.22 92.7696 41.1C90.5696 41.98 88.0896 42.42 85.3296 42.42C81.8096 42.42 78.7096 41.72 76.0296 40.32C73.3496 38.92 71.2696 36.98 69.7896 34.5C68.3496 31.98 67.6296 29.14 67.6296 25.98C67.6296 22.86 68.3296 20.06 69.7296 17.58C71.1696 15.06 73.1296 13.1 75.6096 11.7C78.1296 10.3 80.9696 9.6 84.1296 9.6C87.1296 9.6 89.8496 10.26 92.2896 11.58C94.7696 12.86 96.7296 14.72 98.1696 17.16C99.6096 19.56 100.33 22.38 100.33 25.62L75.7896 30.42C76.5496 32.26 77.7696 33.66 79.4496 34.62C81.1296 35.58 83.1496 36.06 85.5096 36.06ZM84.1296 15.6C81.3696 15.6 79.1296 16.5 77.4096 18.3C75.7296 20.1 74.8896 22.52 74.8896 25.56V25.62L93.0096 22.14C92.4896 20.18 91.4296 18.6 89.8296 17.4C88.2696 16.2 86.3696 15.6 84.1296 15.6ZM122.775 36.06C126.255 36.06 129.155 34.9 131.475 32.58L135.435 37.2C134.035 38.92 132.235 40.22 130.035 41.1C127.835 41.98 125.355 42.42 122.595 42.42C119.075 42.42 115.975 41.72 113.295 40.32C110.615 38.92 108.535 36.98 107.055 34.5C105.615 31.98 104.895 29.14 104.895 25.98C104.895 22.86 105.595 20.06 106.995 17.58C108.435 15.06 110.395 13.1 112.875 11.7C115.395 10.3 118.235 9.6 121.395 9.6C124.395 9.6 127.115 10.26 129.555 11.58C132.035 12.86 133.995 14.72 135.435 17.16C136.875 19.56 137.595 22.38 137.595 25.62L113.055 30.42C113.815 32.26 115.035 33.66 116.715 34.62C118.395 35.58 120.415 36.06 122.775 36.06ZM121.395 15.6C118.635 15.6 116.395 16.5 114.675 18.3C112.995 20.1 112.155 22.52 112.155 25.56V25.62L130.275 22.14C129.755 20.18 128.695 18.6 127.095 17.4C125.535 16.2 123.635 15.6 121.395 15.6ZM169.828 36V42H142.168V37.26L149.368 28.56H144.388V23.04H153.928L159.748 15.96H142.528V9.96H169.348V14.7L162.388 23.1H167.548V28.62H157.828L151.708 36H169.828ZM191.799 36.06C195.279 36.06 198.179 34.9 200.499 32.58L204.459 37.2C203.059 38.92 201.259 40.22 199.059 41.1C196.859 41.98 194.379 42.42 191.619 42.42C188.099 42.42 184.999 41.72 182.319 40.32C179.639 38.92 177.559 36.98 176.079 34.5C174.639 31.98 173.919 29.14 173.919 25.98C173.919 22.86 174.619 20.06 176.019 17.58C177.459 15.06 179.419 13.1 181.899 11.7C184.419 10.3 187.259 9.6 190.419 9.6C193.419 9.6 196.139 10.26 198.579 11.58C201.059 12.86 203.019 14.72 204.459 17.16C205.899 19.56 206.619 22.38 206.619 25.62L182.079 30.42C182.839 32.26 184.059 33.66 185.739 34.62C187.419 35.58 189.439 36.06 191.799 36.06ZM190.419 15.6C187.659 15.6 185.419 16.5 183.699 18.3C182.019 20.1 181.179 22.52 181.179 25.56V25.62L199.299 22.14C198.779 20.18 197.719 18.6 196.119 17.4C194.559 16.2 192.659 15.6 190.419 15.6Z" fill="url(#paint0_linear_581_649)"/>
<defs>
<linearGradient id="paint0_linear_581_649" x1="-7" y1="20" x2="211" y2="20" gradientUnits="userSpaceOnUse">
<stop stop-color="#F69B2F"/>
<stop offset="0.25" stop-color="#D8431A"/>
<stop offset="0.490385" stop-color="#A54C4E"/>
<stop offset="0.75" stop-color="#00567C"/>
<stop offset="1" stop-color="#0072A5"/>
</linearGradient>
</defs>
</svg>
