<svg width="60" height="60" viewBox="0 0 60 60" fill="none" xmlns="http://www.w3.org/2000/svg">
<path d="M5 1H55C57.2091 1 59 2.79086 59 5V55C59 57.2091 57.2091 59 55 59H5C2.79086 59 1 57.2091 1 55V5C1 2.79086 2.79086 1 5 1Z" fill="white" fill-opacity="0.95" stroke="url(#paint0_linear_674_614)" stroke-width="2"/>
<g clip-path="url(#clip0_674_614)">
<path d="M51.1273 41.4131C48.7886 41.3494 47.0027 41.5671 45.4758 42.2108C45.042 42.3938 44.3496 42.3989 44.2787 42.9424C44.5172 43.1922 44.5544 43.5657 44.7438 43.8731C45.1084 44.4626 45.7239 45.2538 46.2732 45.6682C46.8736 46.1214 47.492 46.6056 48.1354 46.9978C49.2797 47.6953 50.5572 48.094 51.6588 48.7929C52.3083 49.2052 52.9534 49.7242 53.5868 50.189C53.9003 50.419 54.1106 50.7765 54.5178 50.9206V50.8545C54.3038 50.5819 54.2486 50.2077 54.0523 49.9232L53.1878 49.0587C52.3427 47.9369 51.2697 46.9515 50.1292 46.1333C49.2197 45.4804 47.1843 44.5985 46.8051 43.5405L46.7386 43.474C47.3833 43.4011 48.1381 43.168 48.7334 43.0082C49.7332 42.7404 50.6267 42.8095 51.6588 42.5431L53.0549 42.144V41.8783C52.5332 41.3429 52.1611 40.6341 51.5924 40.1496C50.1033 38.882 48.4785 37.6154 46.8054 36.559C45.8772 35.9736 44.7305 35.593 43.7468 35.0965C43.4159 34.9292 42.8346 34.8423 42.6161 34.5642C42.0992 33.9059 41.8181 33.071 41.4197 32.304C40.5852 30.6966 39.7657 28.9414 39.0263 27.2502C38.5219 26.0971 38.1924 24.9603 37.5634 23.9258C34.5443 18.9619 31.2948 15.9663 26.2608 13.0215C25.1894 12.3952 23.8997 12.1481 22.5366 11.8244C21.8057 11.7805 21.0741 11.7358 20.3428 11.6912C19.8961 11.5051 19.432 10.9589 19.0132 10.6938C17.3455 9.64016 13.0677 7.34857 11.8327 10.3615C11.0528 12.2633 12.9985 14.1184 13.694 15.0824C14.1826 15.7578 14.8079 16.516 15.1568 17.2762C15.3865 17.7761 15.426 18.2774 15.6227 18.8059C16.1055 20.1082 16.5263 21.5251 17.1516 22.7283C17.4675 23.3376 17.8158 23.9789 18.2155 24.5235C18.4601 24.8577 18.8803 25.0049 18.9464 25.5208C18.5361 26.0954 18.5126 26.9875 18.2819 27.7153C17.2426 30.9917 17.6348 35.0645 19.1464 37.4893C19.6099 38.2342 20.7027 39.8306 22.2047 39.218C23.5187 38.683 23.2253 37.0242 23.6012 35.5609C23.686 35.2294 23.6339 34.9854 23.8005 34.7632V34.8297L24.9976 37.2232C25.8836 38.6499 27.4551 40.1407 28.7875 41.1466C29.4782 41.6683 30.0221 42.57 30.9152 42.8753V42.8085H30.8487C30.6756 42.539 30.4047 42.4272 30.1839 42.2105C29.6636 41.7004 29.085 41.0662 28.6549 40.4818C27.4432 38.837 26.3725 37.0368 25.397 35.1629C24.9308 34.2678 24.5256 33.2809 24.1331 32.3701C23.9818 32.0191 23.9838 31.4879 23.6683 31.3062C23.2379 31.9734 22.6044 32.5132 22.2719 33.301C21.7399 34.5605 21.6715 36.0966 21.4742 37.6893C21.3576 37.7309 21.4094 37.7023 21.3409 37.7554C20.4147 37.5322 20.0897 36.5791 19.7451 35.761C18.8749 33.6926 18.713 30.3627 19.479 27.9818C19.6773 27.3654 20.5728 25.4258 20.2103 24.8564C20.0372 24.2887 19.4661 23.9602 19.1468 23.5264C18.7512 22.99 18.3566 22.284 18.0822 21.6645C17.3701 20.0524 17.0375 18.2419 16.2875 16.6117C15.9287 15.8324 15.3224 15.0436 14.8246 14.3511C14.2736 13.5834 13.6561 13.0181 13.2288 12.0902C13.0769 11.7604 12.8707 11.2322 13.0956 10.8931C13.1672 10.6645 13.2687 10.5691 13.4946 10.4944C13.8804 10.197 14.9544 10.5933 15.3558 10.7599C16.4221 11.2029 17.3121 11.6247 18.2155 12.2231C18.6486 12.5107 19.0875 13.0665 19.6116 13.2205H20.2099C21.146 13.4355 22.1945 13.287 23.0692 13.5527C24.6149 14.0223 26.0001 14.7532 27.2578 15.5475C31.09 17.9676 34.2236 21.412 36.367 25.5212C36.7118 26.1829 36.8611 26.814 37.1647 27.516C37.7774 28.9312 38.5492 30.3872 39.1588 31.7714C39.7674 33.1521 40.3603 34.5455 41.2204 35.6945C41.6726 36.2983 43.4186 36.6224 44.2126 36.9581C44.7687 37.1928 45.6802 37.4382 46.2074 37.7554C47.2136 38.3627 48.1889 39.0854 49.1331 39.7506C49.6044 40.0828 51.055 40.8124 51.1273 41.4131ZM21.4067 16.0808C20.9191 16.0716 20.5742 16.134 20.2096 16.2134V16.2798H20.276C20.5088 16.7576 20.9194 17.0656 21.2067 17.4769C21.4282 17.9427 21.65 18.4079 21.8718 18.873L21.9379 18.8072C22.3499 18.5166 22.5383 18.0528 22.536 17.344C22.371 17.1706 22.3468 16.9532 22.2037 16.746C22.0143 16.4696 21.6466 16.3125 21.4067 16.0808Z" fill="url(#paint1_linear_674_614)"/>
</g>
<defs>
<linearGradient id="paint0_linear_674_614" x1="0" y1="30" x2="60" y2="30" gradientUnits="userSpaceOnUse">
<stop stop-color="#00567C"/>
<stop offset="1" stop-color="#0072A5"/>
</linearGradient>
<linearGradient id="paint1_linear_674_614" x1="11.6514" y1="29.8924" x2="54.5178" y2="29.8924" gradientUnits="userSpaceOnUse">
<stop stop-color="#00567C"/>
<stop offset="1" stop-color="#0072A5"/>
</linearGradient>
<clipPath id="clip0_674_614">
<rect width="43.617" height="43.617" fill="white" transform="translate(11.2764 8.08496)"/>
</clipPath>
</defs>
</svg>
