<svg width="60" height="60" viewBox="0 0 60 60" fill="none" xmlns="http://www.w3.org/2000/svg">
<path d="M5 1H55C57.2091 1 59 2.79086 59 5V55C59 57.2091 57.2091 59 55 59H5C2.79086 59 1 57.2091 1 55V5C1 2.79086 2.79086 1 5 1Z" fill="white" fill-opacity="0.95" stroke="url(#paint0_linear_674_604)" stroke-width="2"/>
<g clip-path="url(#clip0_674_604)">
<path d="M46.5655 11.6726C45.9993 13.0309 45.2745 14.3174 44.4062 15.5055C40.6018 11.7032 35.4434 9.56706 30.0646 9.56641C18.941 9.56641 9.78711 18.7278 9.78711 29.8638C9.78699 32.6137 10.3452 35.335 11.428 37.8628C12.5108 40.3905 14.0955 42.6721 16.0862 44.5692L16.8341 45.2325C20.4891 48.3141 25.1152 50.0056 29.896 50.0084C40.472 50.0084 49.3624 41.7211 50.1154 31.159C50.6684 25.9886 49.1518 19.4492 46.5655 11.6726ZM18.9672 44.6848C18.8044 44.8854 18.5989 45.0472 18.3656 45.1583C18.1324 45.2694 17.8773 45.3271 17.6189 45.3272C16.6658 45.3272 15.886 44.5427 15.886 43.5896C15.886 42.6367 16.6708 41.8522 17.6189 41.8522C18.0137 41.8522 18.4037 41.9889 18.7092 42.2419C19.4517 42.842 19.5676 43.9423 18.9672 44.6848ZM46.4815 38.609C41.4779 45.2798 30.7913 43.0315 23.9392 43.3527C23.9392 43.3527 22.7226 43.4266 21.5007 43.6265C21.5007 43.6265 21.9587 43.4316 22.554 43.2052C27.3627 41.531 29.6379 41.2044 32.5609 39.704C38.0648 36.9029 43.5055 30.7743 44.638 24.3982C42.5419 30.5321 36.1897 35.8026 30.4016 37.9454C26.4358 39.4093 19.2726 40.8308 19.2726 40.8308L18.983 40.678C14.106 38.3036 13.9582 27.7364 22.8224 24.3246C26.7042 22.8291 30.4174 23.6506 34.61 22.6501C39.0868 21.5867 44.2641 18.2273 46.3706 13.8468C48.7302 20.8549 51.5694 31.8273 46.4815 38.609Z" fill="url(#paint1_linear_674_604)"/>
</g>
<defs>
<linearGradient id="paint0_linear_674_604" x1="0" y1="30" x2="60" y2="30" gradientUnits="userSpaceOnUse">
<stop offset="0.25" stop-color="#D8431A"/>
<stop offset="0.490385" stop-color="#A54C4E"/>
</linearGradient>
<linearGradient id="paint1_linear_674_604" x1="9.78711" y1="29.7874" x2="50.2287" y2="29.7874" gradientUnits="userSpaceOnUse">
<stop offset="0.0001" stop-color="#D8431A"/>
<stop offset="1" stop-color="#A54C4E"/>
</linearGradient>
<clipPath id="clip0_674_604">
<rect width="40.4255" height="40.4255" fill="white" transform="translate(9.78711 9.57422)"/>
</clipPath>
</defs>
</svg>
